<svg width="24" height="24" viewBox="0 0 24 24" fill="none" xmlns="http://www.w3.org/2000/svg">
<path d="M9 21H15M9 18H15M9 12H5.414C5.21625 11.9999 5.02295 11.9413 4.85854 11.8314C4.69413 11.7215 4.56599 11.5653 4.49032 11.3826C4.41465 11.1999 4.39485 10.9989 4.43342 10.8049C4.47199 10.611 4.56719 10.4328 4.707 10.293L11.293 3.70697C11.4805 3.5195 11.7348 3.41418 12 3.41418C12.2652 3.41418 12.5195 3.5195 12.707 3.70697L19.293 10.293C19.4328 10.4328 19.528 10.611 19.5666 10.8049C19.6052 10.9989 19.5853 11.1999 19.5097 11.3826C19.434 11.5653 19.3059 11.7215 19.1415 11.8314C18.9771 11.9413 18.7838 11.9999 18.586 12H15V15H9V12Z" stroke="#F8F8F8" stroke-width="2" stroke-linecap="round" stroke-linejoin="round"/>
</svg>
